<?xml version="1.0" encoding="UTF-8" standalone="no"?>
<!DOCTYPE svg PUBLIC "-//W3C//DTD SVG 1.1//EN"
 "http://www.w3.org/Graphics/SVG/1.1/DTD/svg11.dtd">
<!-- Generated by graphviz version 2.43.0 (0)
 -->
<!-- Title: workflow Pages: 1 -->
<svg width="356pt" height="544pt"
 viewBox="0.00 0.00 356.00 544.00" xmlns="http://www.w3.org/2000/svg" xmlns:xlink="http://www.w3.org/1999/xlink">
<g id="graph0" class="graph" transform="scale(1 1) rotate(0) translate(4 540)">
<title>workflow</title>
<polygon fill="white" stroke="transparent" points="-4,4 -4,-540 352,-540 352,4 -4,4"/>
<text text-anchor="start" x="122.5" y="-8.8" font-family="Times,serif" font-weight="bold" font-size="14.00">ExtractWorkflow</text>
<!-- place_new -->
<g id="node1" class="node">
<title>place_new</title>
<ellipse fill="lightgreen" stroke="lightBlue" cx="276" cy="-491" rx="72" ry="36"/>
<text text-anchor="start" x="268" y="-493.6" font-family="Arial" font-weight="bold" font-size="8.00">new</text>
<text text-anchor="start" x="254.5" y="-485.6" font-family="Arial" font-style="italic" font-size="8.00">has Api Key</text>
<text text-anchor="middle" x="121.5" y="-529.6" font-family="Arial" font-size="8.00">Place new: created with json data from api call</text>
</g>
<!-- transition_fetch -->
<g id="node4" class="node">
<title>transition_fetch</title>
<polygon fill="lightBlue" stroke="lightBlue" points="348,-419 204,-419 204,-347 348,-347 348,-419"/>
<text text-anchor="start" x="265.5" y="-401.6" font-family="Arial" font-weight="bold" font-size="8.00">fetch</text>
<text text-anchor="start" x="220" y="-393.6" font-family="Arial" font-style="italic" font-size="8.00">fetch json, dispatch next extract</text>
<text text-anchor="start" x="245" y="-377.6" font-family="Arial" font-size="8.00">Via: extract_fetch</text>
<text text-anchor="start" x="256.5" y="-361.6" font-family="Arial" font-size="8.00">Then: load</text>
<text text-anchor="middle" x="175" y="-421.6" font-family="Arial" font-size="8.00">Transition fetch: </text>
</g>
<!-- place_new&#45;&gt;transition_fetch -->
<!-- new -->
<g id="edge1" class="edge">
<title>place_new&#45;&gt;transition_fetch</title>
<path fill="none" stroke="#333333" d="M276,-455C276,-445.24 276,-434.56 276,-424.51"/>
<polygon fill="#333333" stroke="#333333" points="277.75,-424.33 276,-419.33 274.25,-424.33 277.75,-424.33"/>
</g>
<!-- place_loaded -->
<g id="node2" class="node">
<title>place_loaded</title>
<ellipse fill="lightgreen" stroke="lightBlue" cx="276" cy="-59" rx="72" ry="36"/>
<text text-anchor="start" x="262" y="-61.6" font-family="Arial" font-weight="bold" font-size="8.00">loaded</text>
<text text-anchor="start" x="259.5" y="-53.6" font-family="Arial" font-style="italic" font-size="8.00">Has data</text>
<text text-anchor="middle" x="102" y="-97.6" font-family="Arial" font-size="8.00">Place loaded: load json data returned in api call to objects</text>
</g>
<!-- place_fetched -->
<g id="node3" class="node">
<title>place_fetched</title>
<ellipse fill="lightgreen" stroke="lightBlue" cx="276" cy="-275" rx="72" ry="36"/>
<text text-anchor="start" x="260.5" y="-274.1" font-family="Arial" font-weight="bold" font-size="8.00">fetched</text>
<text text-anchor="middle" x="177.5" y="-313.6" font-family="Arial" font-size="8.00">Place fetched: </text>
</g>
<!-- transition_load -->
<g id="node5" class="node">
<title>transition_load</title>
<polygon fill="lightBlue" stroke="lightBlue" points="348,-203 204,-203 204,-131 348,-131 348,-203"/>
<text text-anchor="start" x="267" y="-177.6" font-family="Arial" font-weight="bold" font-size="8.00">load</text>
<text text-anchor="start" x="240" y="-169.6" font-family="Arial" font-style="italic" font-size="8.00">entity data from raw</text>
<text text-anchor="start" x="246" y="-153.6" font-family="Arial" font-size="8.00">Via: extract_load</text>
<text text-anchor="middle" x="176" y="-205.6" font-family="Arial" font-size="8.00">Transition load: </text>
</g>
<!-- place_fetched&#45;&gt;transition_load -->
<!-- fetched -->
<g id="edge3" class="edge">
<title>place_fetched&#45;&gt;transition_load</title>
<path fill="none" stroke="#333333" d="M276,-239C276,-229.24 276,-218.56 276,-208.51"/>
<polygon fill="#333333" stroke="#333333" points="277.75,-208.33 276,-203.33 274.25,-208.33 277.75,-208.33"/>
</g>
<!-- transition_fetch&#45;&gt;place_fetched -->
<g id="edge2" class="edge">
<title>transition_fetch&#45;&gt;place_fetched</title>
<path fill="none" stroke="#333333" d="M276,-347C276,-337.24 276,-326.56 276,-316.51"/>
<polygon fill="#333333" stroke="#333333" points="277.75,-316.33 276,-311.33 274.25,-316.33 277.75,-316.33"/>
</g>
<!-- transition_load&#45;&gt;place_loaded -->
<g id="edge4" class="edge">
<title>transition_load&#45;&gt;place_loaded</title>
<path fill="none" stroke="#333333" d="M276,-131C276,-121.24 276,-110.56 276,-100.51"/>
<polygon fill="#333333" stroke="#333333" points="277.75,-100.33 276,-95.33 274.25,-100.33 277.75,-100.33"/>
</g>
</g>
</svg>
