<?xml version="1.0" encoding="UTF-8" standalone="no"?>
<!DOCTYPE svg PUBLIC "-//W3C//DTD SVG 1.1//EN"
 "http://www.w3.org/Graphics/SVG/1.1/DTD/svg11.dtd">
<!-- Generated by graphviz version 2.43.0 (0)
 -->
<!-- Title: workflow Pages: 1 -->
<svg width="231pt" height="544pt"
 viewBox="0.00 0.00 231.00 544.00" xmlns="http://www.w3.org/2000/svg" xmlns:xlink="http://www.w3.org/1999/xlink">
<g id="graph0" class="graph" transform="scale(1 1) rotate(0) translate(4 540)">
<title>workflow</title>
<polygon fill="white" stroke="transparent" points="-4,4 -4,-540 227,-540 227,4 -4,4"/>
<text text-anchor="start" x="36" y="-8.8" font-family="Times,serif" font-weight="bold" font-size="14.00">MuseumObjectWorkflow</text>
<!-- place_new -->
<g id="node1" class="node">
<title>place_new</title>
<ellipse fill="lightgreen" stroke="lightBlue" cx="151" cy="-491" rx="72" ry="36"/>
<text text-anchor="start" x="143" y="-490.1" font-family="Arial" font-weight="bold" font-size="8.00">new</text>
<text text-anchor="middle" x="58" y="-529.6" font-family="Arial" font-size="8.00">Place new: </text>
</g>
<!-- transition_thumbnails -->
<g id="node4" class="node">
<title>transition_thumbnails</title>
<polygon fill="lightBlue" stroke="lightBlue" points="223,-419 79,-419 79,-347 223,-347 223,-419"/>
<text text-anchor="start" x="128.5" y="-382.1" font-family="Arial" font-weight="bold" font-size="8.00">thumbnails</text>
<text text-anchor="middle" x="39.5" y="-421.6" font-family="Arial" font-size="8.00">Transition thumbnails: </text>
</g>
<!-- place_new&#45;&gt;transition_thumbnails -->
<!-- new -->
<g id="edge1" class="edge">
<title>place_new&#45;&gt;transition_thumbnails</title>
<path fill="none" stroke="#333333" d="M151,-455C151,-445.24 151,-434.56 151,-424.51"/>
<polygon fill="#333333" stroke="#333333" points="152.75,-424.33 151,-419.33 149.25,-424.33 152.75,-424.33"/>
</g>
<!-- place_pending -->
<g id="node2" class="node">
<title>place_pending</title>
<ellipse fill="lightgreen" stroke="lightBlue" cx="151" cy="-275" rx="72" ry="36"/>
<text text-anchor="start" x="134" y="-274.1" font-family="Arial" font-weight="bold" font-size="8.00">pending</text>
<text text-anchor="middle" x="51.5" y="-313.6" font-family="Arial" font-size="8.00">Place pending: </text>
</g>
<!-- transition_finish -->
<g id="node5" class="node">
<title>transition_finish</title>
<polygon fill="lightBlue" stroke="lightBlue" points="223,-203 79,-203 79,-131 223,-131 223,-203"/>
<text text-anchor="start" x="139.5" y="-166.1" font-family="Arial" font-weight="bold" font-size="8.00">finish</text>
<text text-anchor="middle" x="49.5" y="-205.6" font-family="Arial" font-size="8.00">Transition finish: </text>
</g>
<!-- place_pending&#45;&gt;transition_finish -->
<!-- pending -->
<g id="edge3" class="edge">
<title>place_pending&#45;&gt;transition_finish</title>
<path fill="none" stroke="#333333" d="M151,-239C151,-229.24 151,-218.56 151,-208.51"/>
<polygon fill="#333333" stroke="#333333" points="152.75,-208.33 151,-203.33 149.25,-208.33 152.75,-208.33"/>
</g>
<!-- place_done -->
<g id="node3" class="node">
<title>place_done</title>
<ellipse fill="lightgreen" stroke="lightBlue" cx="151" cy="-59" rx="72" ry="36"/>
<text text-anchor="start" x="140.5" y="-58.1" font-family="Arial" font-weight="bold" font-size="8.00">done</text>
<text text-anchor="middle" x="56.5" y="-97.6" font-family="Arial" font-size="8.00">Place done: </text>
</g>
<!-- transition_thumbnails&#45;&gt;place_pending -->
<g id="edge2" class="edge">
<title>transition_thumbnails&#45;&gt;place_pending</title>
<path fill="none" stroke="#333333" d="M151,-347C151,-337.24 151,-326.56 151,-316.51"/>
<polygon fill="#333333" stroke="#333333" points="152.75,-316.33 151,-311.33 149.25,-316.33 152.75,-316.33"/>
</g>
<!-- transition_finish&#45;&gt;place_done -->
<g id="edge4" class="edge">
<title>transition_finish&#45;&gt;place_done</title>
<path fill="none" stroke="#333333" d="M151,-131C151,-121.24 151,-110.56 151,-100.51"/>
<polygon fill="#333333" stroke="#333333" points="152.75,-100.33 151,-95.33 149.25,-100.33 152.75,-100.33"/>
</g>
</g>
</svg>
