<?xml version="1.0" encoding="UTF-8" standalone="no"?>
<!DOCTYPE svg PUBLIC "-//W3C//DTD SVG 1.1//EN"
 "http://www.w3.org/Graphics/SVG/1.1/DTD/svg11.dtd">
<!-- Generated by graphviz version 2.43.0 (0)
 -->
<!-- Title: workflow Pages: 1 -->
<svg width="221pt" height="220pt"
 viewBox="0.00 0.00 221.00 220.00" xmlns="http://www.w3.org/2000/svg" xmlns:xlink="http://www.w3.org/1999/xlink">
<g id="graph0" class="graph" transform="scale(1 1) rotate(0) translate(4 216)">
<title>workflow</title>
<polygon fill="white" stroke="transparent" points="-4,4 -4,-216 217,-216 217,4 -4,4"/>
<text text-anchor="start" x="29.5" y="-8.8" font-family="Times,serif" font-weight="bold" font-size="14.00">RecordWorkflowInterface</text>
<!-- place_new -->
<g id="node1" class="node">
<title>place_new</title>
<ellipse fill="lightgreen" stroke="lightBlue" cx="141" cy="-167" rx="72" ry="36"/>
<text text-anchor="start" x="133" y="-166.1" font-family="Arial" font-weight="bold" font-size="8.00">new</text>
<text text-anchor="middle" x="48" y="-205.6" font-family="Arial" font-size="8.00">Place new: </text>
</g>
<!-- transition_process -->
<g id="node2" class="node">
<title>transition_process</title>
<polygon fill="lightBlue" stroke="lightBlue" points="213,-95 69,-95 69,-23 213,-23 213,-95"/>
<text text-anchor="start" x="125" y="-58.1" font-family="Arial" font-weight="bold" font-size="8.00">process</text>
<text text-anchor="middle" x="34.5" y="-97.6" font-family="Arial" font-size="8.00">Transition process: </text>
</g>
<!-- place_new&#45;&gt;transition_process -->
<!-- new -->
<g id="edge1" class="edge">
<title>place_new&#45;&gt;transition_process</title>
<path fill="none" stroke="#333333" d="M134.61,-131C134.21,-121.24 134.14,-110.56 134.42,-100.51"/>
<polygon fill="#333333" stroke="#333333" points="136.17,-100.38 134.6,-95.33 132.68,-100.27 136.17,-100.38"/>
</g>
<!-- transition_process&#45;&gt;place_new -->
<g id="edge2" class="edge">
<title>transition_process&#45;&gt;place_new</title>
<path fill="none" stroke="#333333" d="M147.4,-95.33C147.8,-105.1 147.86,-115.79 147.57,-125.82"/>
<polygon fill="#333333" stroke="#333333" points="145.82,-125.94 147.39,-131 149.31,-126.06 145.82,-125.94"/>
</g>
</g>
</svg>
