<?xml version="1.0" encoding="UTF-8" standalone="no"?>
<!DOCTYPE svg PUBLIC "-//W3C//DTD SVG 1.1//EN"
 "http://www.w3.org/Graphics/SVG/1.1/DTD/svg11.dtd">
<!-- Generated by graphviz version 2.43.0 (0)
 -->
<!-- Title: workflow Pages: 1 -->
<svg width="154pt" height="385pt"
 viewBox="0.00 0.00 154.00 384.82" xmlns="http://www.w3.org/2000/svg" xmlns:xlink="http://www.w3.org/1999/xlink">
<g id="graph0" class="graph" transform="scale(1 1) rotate(0) translate(4 380.82)">
<title>workflow</title>
<polygon fill="white" stroke="transparent" points="-4,4 -4,-380.82 150,-380.82 150,4 -4,4"/>
<text text-anchor="start" x="8" y="-8.8" font-family="Times,serif" font-weight="bold" font-size="14.00">ExtractWorkflow</text>
<!-- place_new -->
<g id="node1" class="node">
<title>place_new</title>
<ellipse fill="lightgreen" stroke="#333333" cx="73" cy="-354.2" rx="54.39" ry="22.76"/>
<text text-anchor="start" x="65" y="-360.8" font-family="Arial" font-weight="bold" font-size="8.00">new</text>
<text text-anchor="start" x="42.5" y="-352.8" font-family="Arial" font-style="italic" font-size="8.00">created with json</text>
<text text-anchor="start" x="42.5" y="-344.8" font-family="Arial" font-style="italic" font-size="8.00">data from api call</text>
</g>
<!-- transition_0 -->
<g id="node4" class="node">
<title>transition_0</title>
<polygon fill="none" stroke="#333333" points="140.5,-295.57 5.5,-295.57 5.5,-259.57 140.5,-259.57 140.5,-295.57"/>
<text text-anchor="start" x="62.5" y="-280.17" font-family="Arial" font-weight="bold" font-size="8.00">fetch</text>
<text text-anchor="start" x="13.5" y="-272.17" font-family="Arial" font-size="8.00">transport: extract_fetchNext: load</text>
</g>
<!-- place_new&#45;&gt;transition_0 -->
<!-- new -->
<g id="edge1" class="edge">
<title>place_new&#45;&gt;transition_0</title>
<path fill="none" stroke="#333333" d="M73,-331.21C73,-321.63 73,-310.42 73,-300.82"/>
<polygon fill="#333333" stroke="#333333" points="74.75,-300.67 73,-295.67 71.25,-300.67 74.75,-300.67"/>
</g>
<!-- place_loaded -->
<g id="node2" class="node">
<title>place_loaded</title>
<ellipse fill="lightgreen" stroke="#333333" cx="73" cy="-51.28" rx="57.97" ry="28.07"/>
<text text-anchor="start" x="59" y="-61.88" font-family="Arial" font-weight="bold" font-size="8.00">loaded</text>
<text text-anchor="start" x="48" y="-53.88" font-family="Arial" font-style="italic" font-size="8.00">load json data</text>
<text text-anchor="start" x="40" y="-45.88" font-family="Arial" font-style="italic" font-size="8.00">returned in api call</text>
<text text-anchor="start" x="56" y="-37.88" font-family="Arial" font-style="italic" font-size="8.00">to objects</text>
</g>
<!-- place_fetched -->
<g id="node3" class="node">
<title>place_fetched</title>
<ellipse fill="lightgreen" stroke="#333333" cx="73" cy="-205.57" rx="36" ry="18"/>
<text text-anchor="start" x="57.5" y="-204.67" font-family="Arial" font-weight="bold" font-size="8.00">fetched</text>
</g>
<!-- transition_1 -->
<g id="node5" class="node">
<title>transition_1</title>
<polygon fill="none" stroke="#333333" points="121.5,-151.57 24.5,-151.57 24.5,-115.57 121.5,-115.57 121.5,-151.57"/>
<text text-anchor="start" x="64" y="-136.17" font-family="Arial" font-weight="bold" font-size="8.00">load</text>
<text text-anchor="start" x="32.5" y="-128.17" font-family="Arial" font-size="8.00">transport: extract_load</text>
</g>
<!-- place_fetched&#45;&gt;transition_1 -->
<!-- fetched -->
<g id="edge3" class="edge">
<title>place_fetched&#45;&gt;transition_1</title>
<path fill="none" stroke="#333333" d="M73,-187.27C73,-178.03 73,-166.55 73,-156.67"/>
<polygon fill="#333333" stroke="#333333" points="74.75,-156.67 73,-151.67 71.25,-156.67 74.75,-156.67"/>
</g>
<!-- transition_0&#45;&gt;place_fetched -->
<g id="edge2" class="edge">
<title>transition_0&#45;&gt;place_fetched</title>
<path fill="none" stroke="#333333" d="M73,-259.27C73,-250.03 73,-238.55 73,-228.67"/>
<polygon fill="#333333" stroke="#333333" points="74.75,-228.67 73,-223.67 71.25,-228.67 74.75,-228.67"/>
</g>
<!-- transition_1&#45;&gt;place_loaded -->
<g id="edge4" class="edge">
<title>transition_1&#45;&gt;place_loaded</title>
<path fill="none" stroke="#333333" d="M73,-115.54C73,-106.6 73,-95.34 73,-84.81"/>
<polygon fill="#333333" stroke="#333333" points="74.75,-84.71 73,-79.71 71.25,-84.71 74.75,-84.71"/>
</g>
</g>
</svg>
