<?xml version="1.0" encoding="UTF-8" standalone="no"?>
<!DOCTYPE svg PUBLIC "-//W3C//DTD SVG 1.1//EN"
 "http://www.w3.org/Graphics/SVG/1.1/DTD/svg11.dtd">
<!-- Generated by graphviz version 2.43.0 (0)
 -->
<!-- Title: workflow Pages: 1 -->
<svg width="154pt" height="355pt"
 viewBox="0.00 0.00 154.00 355.00" xmlns="http://www.w3.org/2000/svg" xmlns:xlink="http://www.w3.org/1999/xlink">
<g id="graph0" class="graph" transform="scale(1 1) rotate(0) translate(4 351)">
<title>workflow</title>
<polygon fill="white" stroke="transparent" points="-4,4 -4,-351 150,-351 150,4 -4,4"/>
<text text-anchor="start" x="8" y="-8.8" font-family="Times,serif" font-weight="bold" font-size="14.00">ExtractWorkflow</text>
<!-- place_new -->
<g id="node1" class="node">
<title>place_new</title>
<ellipse fill="lightgreen" stroke="#333333" cx="73" cy="-329" rx="36" ry="18"/>
<text text-anchor="start" x="65" y="-328.1" font-family="Arial" font-weight="bold" font-size="8.00">new</text>
</g>
<!-- transition_0 -->
<g id="node4" class="node">
<title>transition_0</title>
<polygon fill="none" stroke="#333333" points="109,-275 37,-275 37,-239 109,-239 109,-275"/>
<text text-anchor="start" x="62.5" y="-256.1" font-family="Arial" font-weight="bold" font-size="8.00">fetch</text>
</g>
<!-- place_new&#45;&gt;transition_0 -->
<!-- new -->
<g id="edge1" class="edge">
<title>place_new&#45;&gt;transition_0</title>
<path fill="none" stroke="#333333" d="M73,-310.7C73,-301.46 73,-289.98 73,-280.11"/>
<polygon fill="#333333" stroke="#333333" points="74.75,-280.1 73,-275.1 71.25,-280.1 74.75,-280.1"/>
</g>
<!-- place_loaded -->
<g id="node2" class="node">
<title>place_loaded</title>
<ellipse fill="lightgreen" stroke="#333333" cx="73" cy="-41" rx="36" ry="18"/>
<text text-anchor="start" x="59" y="-40.1" font-family="Arial" font-weight="bold" font-size="8.00">loaded</text>
</g>
<!-- place_fetched -->
<g id="node3" class="node">
<title>place_fetched</title>
<ellipse fill="lightgreen" stroke="#333333" cx="73" cy="-185" rx="36" ry="18"/>
<text text-anchor="start" x="57.5" y="-184.1" font-family="Arial" font-weight="bold" font-size="8.00">fetched</text>
</g>
<!-- transition_1 -->
<g id="node5" class="node">
<title>transition_1</title>
<polygon fill="none" stroke="#333333" points="109,-131 37,-131 37,-95 109,-95 109,-131"/>
<text text-anchor="start" x="64" y="-112.1" font-family="Arial" font-weight="bold" font-size="8.00">load</text>
</g>
<!-- place_fetched&#45;&gt;transition_1 -->
<!-- fetched -->
<g id="edge3" class="edge">
<title>place_fetched&#45;&gt;transition_1</title>
<path fill="none" stroke="#333333" d="M73,-166.7C73,-157.46 73,-145.98 73,-136.11"/>
<polygon fill="#333333" stroke="#333333" points="74.75,-136.1 73,-131.1 71.25,-136.1 74.75,-136.1"/>
</g>
<!-- transition_0&#45;&gt;place_fetched -->
<g id="edge2" class="edge">
<title>transition_0&#45;&gt;place_fetched</title>
<path fill="none" stroke="#333333" d="M73,-238.7C73,-229.46 73,-217.98 73,-208.11"/>
<polygon fill="#333333" stroke="#333333" points="74.75,-208.1 73,-203.1 71.25,-208.1 74.75,-208.1"/>
</g>
<!-- transition_1&#45;&gt;place_loaded -->
<g id="edge4" class="edge">
<title>transition_1&#45;&gt;place_loaded</title>
<path fill="none" stroke="#333333" d="M73,-94.7C73,-85.46 73,-73.98 73,-64.11"/>
<polygon fill="#333333" stroke="#333333" points="74.75,-64.1 73,-59.1 71.25,-64.1 74.75,-64.1"/>
</g>
</g>
</svg>
