<?xml version="1.0" encoding="UTF-8" standalone="no"?>
<!DOCTYPE svg PUBLIC "-//W3C//DTD SVG 1.1//EN"
 "http://www.w3.org/Graphics/SVG/1.1/DTD/svg11.dtd">
<!-- Generated by graphviz version 2.43.0 (0)
 -->
<!-- Title: workflow Pages: 1 -->
<svg width="154pt" height="535pt"
 viewBox="0.00 0.00 154.00 535.00" xmlns="http://www.w3.org/2000/svg" xmlns:xlink="http://www.w3.org/1999/xlink">
<g id="graph0" class="graph" transform="scale(1 1) rotate(0) translate(4 531)">
<title>workflow</title>
<polygon fill="white" stroke="transparent" points="-4,4 -4,-531 150,-531 150,4 -4,4"/>
<text text-anchor="start" x="8" y="-8.8" font-family="Times,serif" font-weight="bold" font-size="14.00">ExtractWorkflow</text>
<!-- place_new -->
<g id="node1" class="node">
<title>place_new</title>
<ellipse fill="lightgreen" stroke="lightBlue" cx="73" cy="-491" rx="72" ry="36"/>
<text text-anchor="start" x="65" y="-497.6" font-family="Arial" font-weight="bold" font-size="8.00">new</text>
<text text-anchor="start" x="42.5" y="-489.6" font-family="Arial" font-style="italic" font-size="8.00">created with json</text>
<text text-anchor="start" x="42.5" y="-481.6" font-family="Arial" font-style="italic" font-size="8.00">data from api call</text>
</g>
<!-- transition_0 -->
<g id="node4" class="node">
<title>transition_0</title>
<polygon fill="lightBlue" stroke="lightBlue" points="145,-419 1,-419 1,-347 145,-347 145,-419"/>
<text text-anchor="start" x="62.5" y="-401.6" font-family="Arial" font-weight="bold" font-size="8.00">fetch</text>
<text text-anchor="start" x="39" y="-393.6" font-family="Arial" font-style="italic" font-size="8.00">fetch json, dispatch</text>
<text text-anchor="start" x="52" y="-385.6" font-family="Arial" font-style="italic" font-size="8.00">next extract</text>
<text text-anchor="start" x="42" y="-377.6" font-family="Arial" font-size="8.00">Via: extract_fetch</text>
<text text-anchor="start" x="53.5" y="-361.6" font-family="Arial" font-size="8.00">Then: load</text>
</g>
<!-- place_new&#45;&gt;transition_0 -->
<!-- new -->
<g id="edge1" class="edge">
<title>place_new&#45;&gt;transition_0</title>
<path fill="none" stroke="#333333" d="M73,-455C73,-445.24 73,-434.56 73,-424.51"/>
<polygon fill="#333333" stroke="#333333" points="74.75,-424.33 73,-419.33 71.25,-424.33 74.75,-424.33"/>
</g>
<!-- place_loaded -->
<g id="node2" class="node">
<title>place_loaded</title>
<ellipse fill="lightgreen" stroke="lightBlue" cx="73" cy="-59" rx="72" ry="36"/>
<text text-anchor="start" x="59" y="-69.6" font-family="Arial" font-weight="bold" font-size="8.00">loaded</text>
<text text-anchor="start" x="48" y="-61.6" font-family="Arial" font-style="italic" font-size="8.00">load json data</text>
<text text-anchor="start" x="40" y="-53.6" font-family="Arial" font-style="italic" font-size="8.00">returned in api call</text>
<text text-anchor="start" x="56" y="-45.6" font-family="Arial" font-style="italic" font-size="8.00">to objects</text>
</g>
<!-- place_fetched -->
<g id="node3" class="node">
<title>place_fetched</title>
<ellipse fill="lightgreen" stroke="lightBlue" cx="73" cy="-275" rx="72" ry="36"/>
<text text-anchor="start" x="57.5" y="-274.1" font-family="Arial" font-weight="bold" font-size="8.00">fetched</text>
</g>
<!-- transition_1 -->
<g id="node5" class="node">
<title>transition_1</title>
<polygon fill="lightBlue" stroke="lightBlue" points="145,-203 1,-203 1,-131 145,-131 145,-203"/>
<text text-anchor="start" x="64" y="-169.6" font-family="Arial" font-weight="bold" font-size="8.00">load</text>
<text text-anchor="start" x="43" y="-161.6" font-family="Arial" font-size="8.00">Via: extract_load</text>
</g>
<!-- place_fetched&#45;&gt;transition_1 -->
<!-- fetched -->
<g id="edge3" class="edge">
<title>place_fetched&#45;&gt;transition_1</title>
<path fill="none" stroke="#333333" d="M73,-239C73,-229.24 73,-218.56 73,-208.51"/>
<polygon fill="#333333" stroke="#333333" points="74.75,-208.33 73,-203.33 71.25,-208.33 74.75,-208.33"/>
</g>
<!-- transition_0&#45;&gt;place_fetched -->
<g id="edge2" class="edge">
<title>transition_0&#45;&gt;place_fetched</title>
<path fill="none" stroke="#333333" d="M73,-347C73,-337.24 73,-326.56 73,-316.51"/>
<polygon fill="#333333" stroke="#333333" points="74.75,-316.33 73,-311.33 71.25,-316.33 74.75,-316.33"/>
</g>
<!-- transition_1&#45;&gt;place_loaded -->
<g id="edge4" class="edge">
<title>transition_1&#45;&gt;place_loaded</title>
<path fill="none" stroke="#333333" d="M73,-131C73,-121.24 73,-110.56 73,-100.51"/>
<polygon fill="#333333" stroke="#333333" points="74.75,-100.33 73,-95.33 71.25,-100.33 74.75,-100.33"/>
</g>
</g>
</svg>
