<?xml version="1.0" encoding="UTF-8" standalone="no"?>
<!DOCTYPE svg PUBLIC "-//W3C//DTD SVG 1.1//EN"
 "http://www.w3.org/Graphics/SVG/1.1/DTD/svg11.dtd">
<!-- Generated by graphviz version 2.43.0 (0)
 -->
<!-- Title: workflow Pages: 1 -->
<svg width="126pt" height="499pt"
 viewBox="0.00 0.00 126.00 499.00" xmlns="http://www.w3.org/2000/svg" xmlns:xlink="http://www.w3.org/1999/xlink">
<g id="graph0" class="graph" transform="scale(1 1) rotate(0) translate(4 495)">
<title>workflow</title>
<polygon fill="white" stroke="transparent" points="-4,4 -4,-495 122,-495 122,4 -4,4"/>
<text text-anchor="start" x="8" y="-8.8" font-family="Times,serif" font-weight="bold" font-size="14.00">GrpWorkflow</text>
<!-- place_new -->
<g id="node1" class="node">
<title>place_new</title>
<ellipse fill="lightgreen" stroke="#333333" cx="59" cy="-473" rx="36" ry="18"/>
<text text-anchor="start" x="51" y="-472.1" font-family="Arial" font-weight="bold" font-size="8.00">new</text>
</g>
<!-- transition_0 -->
<g id="node5" class="node">
<title>transition_0</title>
<polygon fill="none" stroke="#333333" points="109,-419 9,-419 9,-383 109,-383 109,-419"/>
<text text-anchor="start" x="35" y="-407.6" font-family="Arial" font-weight="bold" font-size="8.00">get_api_key</text>
<text text-anchor="start" x="33.5" y="-399.6" font-family="Arial" font-style="italic" font-size="8.00">fetch the initial</text>
<text text-anchor="start" x="17" y="-391.6" font-family="Arial" font-style="italic" font-size="8.00">API key</text>
<text text-anchor="start" x="45" y="-391.6" font-family="Arial" font-size="8.00">Next: extracting</text>
</g>
<!-- place_new&#45;&gt;transition_0 -->
<!-- new -->
<g id="edge1" class="edge">
<title>place_new&#45;&gt;transition_0</title>
<path fill="none" stroke="#333333" d="M59,-454.7C59,-445.46 59,-433.98 59,-424.11"/>
<polygon fill="#333333" stroke="#333333" points="60.75,-424.1 59,-419.1 57.25,-424.1 60.75,-424.1"/>
</g>
<!-- place_ready -->
<g id="node2" class="node">
<title>place_ready</title>
<ellipse fill="lightgreen" stroke="#333333" cx="59" cy="-329" rx="52.15" ry="18"/>
<text text-anchor="start" x="48" y="-331.6" font-family="Arial" font-weight="bold" font-size="8.00">ready</text>
<text text-anchor="start" x="28" y="-323.6" font-family="Arial" font-style="italic" font-size="8.00">has initial API key</text>
</g>
<!-- transition_1 -->
<g id="node6" class="node">
<title>transition_1</title>
<polygon fill="none" stroke="#333333" points="106,-275 12,-275 12,-239 106,-239 106,-275"/>
<text text-anchor="start" x="45" y="-263.6" font-family="Arial" font-weight="bold" font-size="8.00">extract</text>
<text text-anchor="start" x="25.5" y="-255.6" font-family="Arial" font-style="italic" font-size="8.00">create the extract?</text>
<text text-anchor="start" x="20" y="-247.6" font-family="Arial" font-size="8.00">transport: grp_extract</text>
</g>
<!-- place_ready&#45;&gt;transition_1 -->
<!-- ready -->
<g id="edge3" class="edge">
<title>place_ready&#45;&gt;transition_1</title>
<path fill="none" stroke="#333333" d="M59,-310.7C59,-301.46 59,-289.98 59,-280.11"/>
<polygon fill="#333333" stroke="#333333" points="60.75,-280.1 59,-275.1 57.25,-280.1 60.75,-280.1"/>
</g>
<!-- place_extracting -->
<g id="node3" class="node">
<title>place_extracting</title>
<ellipse fill="lightgreen" stroke="#333333" cx="59" cy="-185" rx="36" ry="18"/>
<text text-anchor="start" x="39" y="-184.1" font-family="Arial" font-weight="bold" font-size="8.00">extracting</text>
</g>
<!-- transition_2 -->
<g id="node7" class="node">
<title>transition_2</title>
<polygon fill="none" stroke="#333333" points="95,-131 23,-131 23,-95 95,-95 95,-131"/>
<text text-anchor="start" x="47.5" y="-112.1" font-family="Arial" font-weight="bold" font-size="8.00">finish</text>
</g>
<!-- place_extracting&#45;&gt;transition_2 -->
<!-- extracting -->
<g id="edge5" class="edge">
<title>place_extracting&#45;&gt;transition_2</title>
<path fill="none" stroke="#333333" d="M59,-166.7C59,-157.46 59,-145.98 59,-136.11"/>
<polygon fill="#333333" stroke="#333333" points="60.75,-136.1 59,-131.1 57.25,-136.1 60.75,-136.1"/>
</g>
<!-- place_finished -->
<g id="node4" class="node">
<title>place_finished</title>
<ellipse fill="lightgreen" stroke="#333333" cx="59" cy="-41" rx="36" ry="18"/>
<text text-anchor="start" x="42.5" y="-40.1" font-family="Arial" font-weight="bold" font-size="8.00">finished</text>
</g>
<!-- transition_0&#45;&gt;place_ready -->
<g id="edge2" class="edge">
<title>transition_0&#45;&gt;place_ready</title>
<path fill="none" stroke="#333333" d="M59,-382.7C59,-373.46 59,-361.98 59,-352.11"/>
<polygon fill="#333333" stroke="#333333" points="60.75,-352.1 59,-347.1 57.25,-352.1 60.75,-352.1"/>
</g>
<!-- transition_1&#45;&gt;place_extracting -->
<g id="edge4" class="edge">
<title>transition_1&#45;&gt;place_extracting</title>
<path fill="none" stroke="#333333" d="M59,-238.7C59,-229.46 59,-217.98 59,-208.11"/>
<polygon fill="#333333" stroke="#333333" points="60.75,-208.1 59,-203.1 57.25,-208.1 60.75,-208.1"/>
</g>
<!-- transition_2&#45;&gt;place_finished -->
<g id="edge6" class="edge">
<title>transition_2&#45;&gt;place_finished</title>
<path fill="none" stroke="#333333" d="M59,-94.7C59,-85.46 59,-73.98 59,-64.11"/>
<polygon fill="#333333" stroke="#333333" points="60.75,-64.1 59,-59.1 57.25,-64.1 60.75,-64.1"/>
</g>
</g>
</svg>
