<?xml version="1.0" encoding="UTF-8" standalone="no"?>
<!DOCTYPE svg PUBLIC "-//W3C//DTD SVG 1.1//EN"
 "http://www.w3.org/Graphics/SVG/1.1/DTD/svg11.dtd">
<!-- Generated by graphviz version 2.43.0 (0)
 -->
<!-- Title: workflow Pages: 1 -->
<svg width="126pt" height="355pt"
 viewBox="0.00 0.00 126.00 355.00" xmlns="http://www.w3.org/2000/svg" xmlns:xlink="http://www.w3.org/1999/xlink">
<g id="graph0" class="graph" transform="scale(1 1) rotate(0) translate(4 351)">
<title>workflow</title>
<polygon fill="white" stroke="transparent" points="-4,4 -4,-351 122,-351 122,4 -4,4"/>
<text text-anchor="start" x="8" y="-8.8" font-family="Times,serif" font-weight="bold" font-size="14.00">GrpWorkflow</text>
<!-- place_new -->
<g id="node1" class="node">
<title>place_new</title>
<ellipse fill="lightgreen" stroke="#333333" cx="59" cy="-329" rx="36" ry="18"/>
<text text-anchor="start" x="51" y="-328.1" font-family="Arial" font-weight="bold" font-size="8.00">new</text>
</g>
<!-- transition_0 -->
<g id="node4" class="node">
<title>transition_0</title>
<polygon fill="none" stroke="#333333" points="95,-275 23,-275 23,-239 95,-239 95,-275"/>
<text text-anchor="start" x="41.5" y="-256.1" font-family="Arial" font-weight="bold" font-size="8.00">dispatch</text>
</g>
<!-- place_new&#45;&gt;transition_0 -->
<!-- new -->
<g id="edge1" class="edge">
<title>place_new&#45;&gt;transition_0</title>
<path fill="none" stroke="#333333" d="M59,-310.7C59,-301.46 59,-289.98 59,-280.11"/>
<polygon fill="#333333" stroke="#333333" points="60.75,-280.1 59,-275.1 57.25,-280.1 60.75,-280.1"/>
</g>
<!-- place_dispatched -->
<g id="node2" class="node">
<title>place_dispatched</title>
<ellipse fill="lightgreen" stroke="#333333" cx="59" cy="-185" rx="36" ry="18"/>
<text text-anchor="start" x="36.5" y="-184.1" font-family="Arial" font-weight="bold" font-size="8.00">dispatched</text>
</g>
<!-- transition_1 -->
<g id="node5" class="node">
<title>transition_1</title>
<polygon fill="none" stroke="#333333" points="95,-131 23,-131 23,-95 95,-95 95,-131"/>
<text text-anchor="start" x="47.5" y="-112.1" font-family="Arial" font-weight="bold" font-size="8.00">finish</text>
</g>
<!-- place_dispatched&#45;&gt;transition_1 -->
<!-- dispatched -->
<g id="edge3" class="edge">
<title>place_dispatched&#45;&gt;transition_1</title>
<path fill="none" stroke="#333333" d="M59,-166.7C59,-157.46 59,-145.98 59,-136.11"/>
<polygon fill="#333333" stroke="#333333" points="60.75,-136.1 59,-131.1 57.25,-136.1 60.75,-136.1"/>
</g>
<!-- place_finished -->
<g id="node3" class="node">
<title>place_finished</title>
<ellipse fill="lightgreen" stroke="#333333" cx="59" cy="-41" rx="36" ry="18"/>
<text text-anchor="start" x="42.5" y="-40.1" font-family="Arial" font-weight="bold" font-size="8.00">finished</text>
</g>
<!-- transition_0&#45;&gt;place_dispatched -->
<g id="edge2" class="edge">
<title>transition_0&#45;&gt;place_dispatched</title>
<path fill="none" stroke="#333333" d="M59,-238.7C59,-229.46 59,-217.98 59,-208.11"/>
<polygon fill="#333333" stroke="#333333" points="60.75,-208.1 59,-203.1 57.25,-208.1 60.75,-208.1"/>
</g>
<!-- transition_1&#45;&gt;place_finished -->
<g id="edge4" class="edge">
<title>transition_1&#45;&gt;place_finished</title>
<path fill="none" stroke="#333333" d="M59,-94.7C59,-85.46 59,-73.98 59,-64.11"/>
<polygon fill="#333333" stroke="#333333" points="60.75,-64.1 59,-59.1 57.25,-64.1 60.75,-64.1"/>
</g>
</g>
</svg>
