<?xml version="1.0" encoding="UTF-8" standalone="no"?>
<!DOCTYPE svg PUBLIC "-//W3C//DTD SVG 1.1//EN"
 "http://www.w3.org/Graphics/SVG/1.1/DTD/svg11.dtd">
<!-- Generated by graphviz version 2.43.0 (0)
 -->
<!-- Title: workflow Pages: 1 -->
<svg width="152pt" height="751pt"
 viewBox="0.00 0.00 152.00 751.00" xmlns="http://www.w3.org/2000/svg" xmlns:xlink="http://www.w3.org/1999/xlink">
<g id="graph0" class="graph" transform="scale(1 1) rotate(0) translate(4 747)">
<title>workflow</title>
<polygon fill="white" stroke="transparent" points="-4,4 -4,-747 148,-747 148,4 -4,4"/>
<text text-anchor="start" x="21" y="-8.8" font-family="Times,serif" font-weight="bold" font-size="14.00">GrpWorkflow</text>
<!-- place_new -->
<g id="node1" class="node">
<title>place_new</title>
<ellipse fill="lightgreen" stroke="lightBlue" cx="72" cy="-707" rx="72" ry="36"/>
<text text-anchor="start" x="64" y="-706.1" font-family="Arial" font-weight="bold" font-size="8.00">new</text>
</g>
<!-- transition_0 -->
<g id="node5" class="node">
<title>transition_0</title>
<polygon fill="lightBlue" stroke="lightBlue" points="144,-635 0,-635 0,-563 144,-563 144,-635"/>
<text text-anchor="start" x="48" y="-613.6" font-family="Arial" font-weight="bold" font-size="8.00">get_api_key</text>
<text text-anchor="start" x="46.5" y="-605.6" font-family="Arial" font-style="italic" font-size="8.00">fetch the initial</text>
<text text-anchor="start" x="58" y="-597.6" font-family="Arial" font-style="italic" font-size="8.00">API key</text>
<text text-anchor="start" x="48" y="-581.6" font-family="Arial" font-size="8.00">Then: extract</text>
</g>
<!-- place_new&#45;&gt;transition_0 -->
<!-- new -->
<g id="edge1" class="edge">
<title>place_new&#45;&gt;transition_0</title>
<path fill="none" stroke="#333333" d="M72,-671C72,-661.24 72,-650.56 72,-640.51"/>
<polygon fill="#333333" stroke="#333333" points="73.75,-640.33 72,-635.33 70.25,-640.33 73.75,-640.33"/>
</g>
<!-- place_ready -->
<g id="node2" class="node">
<title>place_ready</title>
<ellipse fill="lightgreen" stroke="lightBlue" cx="72" cy="-491" rx="72" ry="36"/>
<text text-anchor="start" x="61" y="-493.6" font-family="Arial" font-weight="bold" font-size="8.00">ready</text>
<text text-anchor="start" x="41" y="-485.6" font-family="Arial" font-style="italic" font-size="8.00">has initial API key</text>
</g>
<!-- transition_1 -->
<g id="node6" class="node">
<title>transition_1</title>
<polygon fill="lightBlue" stroke="lightBlue" points="144,-419 0,-419 0,-347 144,-347 144,-419"/>
<text text-anchor="start" x="58" y="-389.6" font-family="Arial" font-weight="bold" font-size="8.00">extract</text>
<text text-anchor="start" x="38.5" y="-381.6" font-family="Arial" font-style="italic" font-size="8.00">create the extract?</text>
<text text-anchor="start" x="43.5" y="-373.6" font-family="Arial" font-size="8.00">Via: grp_extract</text>
</g>
<!-- place_ready&#45;&gt;transition_1 -->
<!-- ready -->
<g id="edge3" class="edge">
<title>place_ready&#45;&gt;transition_1</title>
<path fill="none" stroke="#333333" d="M72,-455C72,-445.24 72,-434.56 72,-424.51"/>
<polygon fill="#333333" stroke="#333333" points="73.75,-424.33 72,-419.33 70.25,-424.33 73.75,-424.33"/>
</g>
<!-- place_extracting -->
<g id="node3" class="node">
<title>place_extracting</title>
<ellipse fill="lightgreen" stroke="lightBlue" cx="72" cy="-275" rx="72" ry="36"/>
<text text-anchor="start" x="52" y="-274.1" font-family="Arial" font-weight="bold" font-size="8.00">extracting</text>
</g>
<!-- transition_2 -->
<g id="node7" class="node">
<title>transition_2</title>
<polygon fill="lightBlue" stroke="lightBlue" points="144,-203 0,-203 0,-131 144,-131 144,-203"/>
<text text-anchor="start" x="60.5" y="-166.1" font-family="Arial" font-weight="bold" font-size="8.00">finish</text>
</g>
<!-- place_extracting&#45;&gt;transition_2 -->
<!-- extracting -->
<g id="edge5" class="edge">
<title>place_extracting&#45;&gt;transition_2</title>
<path fill="none" stroke="#333333" d="M72,-239C72,-229.24 72,-218.56 72,-208.51"/>
<polygon fill="#333333" stroke="#333333" points="73.75,-208.33 72,-203.33 70.25,-208.33 73.75,-208.33"/>
</g>
<!-- place_finished -->
<g id="node4" class="node">
<title>place_finished</title>
<ellipse fill="lightgreen" stroke="lightBlue" cx="72" cy="-59" rx="72" ry="36"/>
<text text-anchor="start" x="55.5" y="-58.1" font-family="Arial" font-weight="bold" font-size="8.00">finished</text>
</g>
<!-- transition_0&#45;&gt;place_ready -->
<g id="edge2" class="edge">
<title>transition_0&#45;&gt;place_ready</title>
<path fill="none" stroke="#333333" d="M72,-563C72,-553.24 72,-542.56 72,-532.51"/>
<polygon fill="#333333" stroke="#333333" points="73.75,-532.33 72,-527.33 70.25,-532.33 73.75,-532.33"/>
</g>
<!-- transition_1&#45;&gt;place_extracting -->
<g id="edge4" class="edge">
<title>transition_1&#45;&gt;place_extracting</title>
<path fill="none" stroke="#333333" d="M72,-347C72,-337.24 72,-326.56 72,-316.51"/>
<polygon fill="#333333" stroke="#333333" points="73.75,-316.33 72,-311.33 70.25,-316.33 73.75,-316.33"/>
</g>
<!-- transition_2&#45;&gt;place_finished -->
<g id="edge6" class="edge">
<title>transition_2&#45;&gt;place_finished</title>
<path fill="none" stroke="#333333" d="M72,-131C72,-121.24 72,-110.56 72,-100.51"/>
<polygon fill="#333333" stroke="#333333" points="73.75,-100.33 72,-95.33 70.25,-100.33 73.75,-100.33"/>
</g>
</g>
</svg>
