<?xml version="1.0" encoding="UTF-8" standalone="no"?>
<!DOCTYPE svg PUBLIC "-//W3C//DTD SVG 1.1//EN"
 "http://www.w3.org/Graphics/SVG/1.1/DTD/svg11.dtd">
<!-- Generated by graphviz version 2.43.0 (0)
 -->
<!-- Title: workflow Pages: 1 -->
<svg width="217pt" height="355pt"
 viewBox="0.00 0.00 217.00 355.00" xmlns="http://www.w3.org/2000/svg" xmlns:xlink="http://www.w3.org/1999/xlink">
<g id="graph0" class="graph" transform="scale(1 1) rotate(0) translate(4 351)">
<title>workflow</title>
<polygon fill="white" stroke="transparent" points="-4,4 -4,-351 213,-351 213,4 -4,4"/>
<text text-anchor="start" x="8" y="-8.8" font-family="Times,serif" font-weight="bold" font-size="14.00">MuseumObjectWorkflow</text>
<!-- place_new -->
<g id="node1" class="node">
<title>place_new</title>
<ellipse fill="lightgreen" stroke="#333333" cx="104.5" cy="-329" rx="36" ry="18"/>
<text text-anchor="start" x="96.5" y="-328.1" font-family="Arial" font-weight="bold" font-size="8.00">new</text>
</g>
<!-- transition_0 -->
<g id="node4" class="node">
<title>transition_0</title>
<polygon fill="none" stroke="#333333" points="140.5,-275 68.5,-275 68.5,-239 140.5,-239 140.5,-275"/>
<text text-anchor="start" x="82" y="-256.1" font-family="Arial" font-weight="bold" font-size="8.00">thumbnails</text>
</g>
<!-- place_new&#45;&gt;transition_0 -->
<!-- new -->
<g id="edge1" class="edge">
<title>place_new&#45;&gt;transition_0</title>
<path fill="none" stroke="#333333" d="M104.5,-310.7C104.5,-301.46 104.5,-289.98 104.5,-280.11"/>
<polygon fill="#333333" stroke="#333333" points="106.25,-280.1 104.5,-275.1 102.75,-280.1 106.25,-280.1"/>
</g>
<!-- place_pending -->
<g id="node2" class="node">
<title>place_pending</title>
<ellipse fill="lightgreen" stroke="#333333" cx="104.5" cy="-185" rx="36" ry="18"/>
<text text-anchor="start" x="87.5" y="-184.1" font-family="Arial" font-weight="bold" font-size="8.00">pending</text>
</g>
<!-- transition_1 -->
<g id="node5" class="node">
<title>transition_1</title>
<polygon fill="none" stroke="#333333" points="140.5,-131 68.5,-131 68.5,-95 140.5,-95 140.5,-131"/>
<text text-anchor="start" x="93" y="-112.1" font-family="Arial" font-weight="bold" font-size="8.00">finish</text>
</g>
<!-- place_pending&#45;&gt;transition_1 -->
<!-- pending -->
<g id="edge3" class="edge">
<title>place_pending&#45;&gt;transition_1</title>
<path fill="none" stroke="#333333" d="M104.5,-166.7C104.5,-157.46 104.5,-145.98 104.5,-136.11"/>
<polygon fill="#333333" stroke="#333333" points="106.25,-136.1 104.5,-131.1 102.75,-136.1 106.25,-136.1"/>
</g>
<!-- place_done -->
<g id="node3" class="node">
<title>place_done</title>
<ellipse fill="lightgreen" stroke="#333333" cx="104.5" cy="-41" rx="36" ry="18"/>
<text text-anchor="start" x="94" y="-40.1" font-family="Arial" font-weight="bold" font-size="8.00">done</text>
</g>
<!-- transition_0&#45;&gt;place_pending -->
<g id="edge2" class="edge">
<title>transition_0&#45;&gt;place_pending</title>
<path fill="none" stroke="#333333" d="M104.5,-238.7C104.5,-229.46 104.5,-217.98 104.5,-208.11"/>
<polygon fill="#333333" stroke="#333333" points="106.25,-208.1 104.5,-203.1 102.75,-208.1 106.25,-208.1"/>
</g>
<!-- transition_1&#45;&gt;place_done -->
<g id="edge4" class="edge">
<title>transition_1&#45;&gt;place_done</title>
<path fill="none" stroke="#333333" d="M104.5,-94.7C104.5,-85.46 104.5,-73.98 104.5,-64.11"/>
<polygon fill="#333333" stroke="#333333" points="106.25,-64.1 104.5,-59.1 102.75,-64.1 106.25,-64.1"/>
</g>
</g>
</svg>
