<?xml version="1.0" encoding="UTF-8" standalone="no"?>
<!DOCTYPE svg PUBLIC "-//W3C//DTD SVG 1.1//EN"
 "http://www.w3.org/Graphics/SVG/1.1/DTD/svg11.dtd">
<!-- Generated by graphviz version 2.43.0 (0)
 -->
<!-- Title: workflow Pages: 1 -->
<svg width="217pt" height="535pt"
 viewBox="0.00 0.00 217.00 535.00" xmlns="http://www.w3.org/2000/svg" xmlns:xlink="http://www.w3.org/1999/xlink">
<g id="graph0" class="graph" transform="scale(1 1) rotate(0) translate(4 531)">
<title>workflow</title>
<polygon fill="white" stroke="transparent" points="-4,4 -4,-531 213,-531 213,4 -4,4"/>
<text text-anchor="start" x="8" y="-8.8" font-family="Times,serif" font-weight="bold" font-size="14.00">MuseumObjectWorkflow</text>
<!-- place_new -->
<g id="node1" class="node">
<title>place_new</title>
<ellipse fill="lightgreen" stroke="lightBlue" cx="104.5" cy="-491" rx="72" ry="36"/>
<text text-anchor="start" x="96.5" y="-490.1" font-family="Arial" font-weight="bold" font-size="8.00">new</text>
</g>
<!-- transition_0 -->
<g id="node4" class="node">
<title>transition_0</title>
<polygon fill="lightBlue" stroke="lightBlue" points="176.5,-419 32.5,-419 32.5,-347 176.5,-347 176.5,-419"/>
<text text-anchor="start" x="82" y="-382.1" font-family="Arial" font-weight="bold" font-size="8.00">thumbnails</text>
</g>
<!-- place_new&#45;&gt;transition_0 -->
<!-- new -->
<g id="edge1" class="edge">
<title>place_new&#45;&gt;transition_0</title>
<path fill="none" stroke="#333333" d="M104.5,-455C104.5,-445.24 104.5,-434.56 104.5,-424.51"/>
<polygon fill="#333333" stroke="#333333" points="106.25,-424.33 104.5,-419.33 102.75,-424.33 106.25,-424.33"/>
</g>
<!-- place_pending -->
<g id="node2" class="node">
<title>place_pending</title>
<ellipse fill="lightgreen" stroke="lightBlue" cx="104.5" cy="-275" rx="72" ry="36"/>
<text text-anchor="start" x="87.5" y="-274.1" font-family="Arial" font-weight="bold" font-size="8.00">pending</text>
</g>
<!-- transition_1 -->
<g id="node5" class="node">
<title>transition_1</title>
<polygon fill="lightBlue" stroke="lightBlue" points="176.5,-203 32.5,-203 32.5,-131 176.5,-131 176.5,-203"/>
<text text-anchor="start" x="93" y="-166.1" font-family="Arial" font-weight="bold" font-size="8.00">finish</text>
</g>
<!-- place_pending&#45;&gt;transition_1 -->
<!-- pending -->
<g id="edge3" class="edge">
<title>place_pending&#45;&gt;transition_1</title>
<path fill="none" stroke="#333333" d="M104.5,-239C104.5,-229.24 104.5,-218.56 104.5,-208.51"/>
<polygon fill="#333333" stroke="#333333" points="106.25,-208.33 104.5,-203.33 102.75,-208.33 106.25,-208.33"/>
</g>
<!-- place_done -->
<g id="node3" class="node">
<title>place_done</title>
<ellipse fill="lightgreen" stroke="lightBlue" cx="104.5" cy="-59" rx="72" ry="36"/>
<text text-anchor="start" x="94" y="-58.1" font-family="Arial" font-weight="bold" font-size="8.00">done</text>
</g>
<!-- transition_0&#45;&gt;place_pending -->
<g id="edge2" class="edge">
<title>transition_0&#45;&gt;place_pending</title>
<path fill="none" stroke="#333333" d="M104.5,-347C104.5,-337.24 104.5,-326.56 104.5,-316.51"/>
<polygon fill="#333333" stroke="#333333" points="106.25,-316.33 104.5,-311.33 102.75,-316.33 106.25,-316.33"/>
</g>
<!-- transition_1&#45;&gt;place_done -->
<g id="edge4" class="edge">
<title>transition_1&#45;&gt;place_done</title>
<path fill="none" stroke="#333333" d="M104.5,-131C104.5,-121.24 104.5,-110.56 104.5,-100.51"/>
<polygon fill="#333333" stroke="#333333" points="106.25,-100.33 104.5,-95.33 102.75,-100.33 106.25,-100.33"/>
</g>
</g>
</svg>
