<?xml version="1.0" encoding="UTF-8" standalone="no"?>
<!DOCTYPE svg PUBLIC "-//W3C//DTD SVG 1.1//EN"
 "http://www.w3.org/Graphics/SVG/1.1/DTD/svg11.dtd">
<!-- Generated by graphviz version 2.43.0 (0)
 -->
<!-- Title: workflow Pages: 1 -->
<svg width="199pt" height="224pt"
 viewBox="0.00 0.00 199.00 224.00" xmlns="http://www.w3.org/2000/svg" xmlns:xlink="http://www.w3.org/1999/xlink">
<g id="graph0" class="graph" transform="scale(1 1) rotate(0) translate(4 220)">
<title>workflow</title>
<polygon fill="white" stroke="transparent" points="-4,4 -4,-220 195,-220 195,4 -4,4"/>
<text text-anchor="start" x="8" y="-21.8" font-family="Times,serif" font-weight="bold" font-size="14.00">RecordWorkflowInterf</text>
<text text-anchor="start" x="82" y="-7.8" font-family="Times,serif" font-weight="bold" font-size="14.00">ace</text>
<!-- place_new -->
<g id="node1" class="node">
<title>place_new</title>
<ellipse fill="lightgreen" stroke="lightBlue" cx="95.5" cy="-180" rx="72" ry="36"/>
<text text-anchor="start" x="87.5" y="-179.1" font-family="Arial" font-weight="bold" font-size="8.00">new</text>
</g>
<!-- transition_0 -->
<g id="node2" class="node">
<title>transition_0</title>
<polygon fill="lightBlue" stroke="lightBlue" points="167.5,-108 23.5,-108 23.5,-36 167.5,-36 167.5,-108"/>
<text text-anchor="start" x="79.5" y="-71.1" font-family="Arial" font-weight="bold" font-size="8.00">process</text>
</g>
<!-- place_new&#45;&gt;transition_0 -->
<!-- new -->
<g id="edge1" class="edge">
<title>place_new&#45;&gt;transition_0</title>
<path fill="none" stroke="#333333" d="M89.11,-144C88.71,-134.24 88.64,-123.56 88.92,-113.51"/>
<polygon fill="#333333" stroke="#333333" points="90.67,-113.38 89.1,-108.33 87.18,-113.27 90.67,-113.38"/>
</g>
<!-- transition_0&#45;&gt;place_new -->
<g id="edge2" class="edge">
<title>transition_0&#45;&gt;place_new</title>
<path fill="none" stroke="#333333" d="M101.9,-108.33C102.3,-118.1 102.36,-128.79 102.07,-138.82"/>
<polygon fill="#333333" stroke="#333333" points="100.32,-138.94 101.89,-144 103.81,-139.06 100.32,-138.94"/>
</g>
</g>
</svg>
