<?xml version="1.0" encoding="UTF-8" standalone="no"?>
<!DOCTYPE svg PUBLIC "-//W3C//DTD SVG 1.1//EN"
 "http://www.w3.org/Graphics/SVG/1.1/DTD/svg11.dtd">
<!-- Generated by graphviz version 2.43.0 (0)
 -->
<!-- Title: workflow Pages: 1 -->
<svg width="199pt" height="152pt"
 viewBox="0.00 0.00 199.00 152.00" xmlns="http://www.w3.org/2000/svg" xmlns:xlink="http://www.w3.org/1999/xlink">
<g id="graph0" class="graph" transform="scale(1 1) rotate(0) translate(4 148)">
<title>workflow</title>
<polygon fill="white" stroke="transparent" points="-4,4 -4,-148 195,-148 195,4 -4,4"/>
<text text-anchor="start" x="8" y="-21.8" font-family="Times,serif" font-weight="bold" font-size="14.00">RecordWorkflowInterf</text>
<text text-anchor="start" x="82" y="-7.8" font-family="Times,serif" font-weight="bold" font-size="14.00">ace</text>
<!-- place_new -->
<g id="node1" class="node">
<title>place_new</title>
<ellipse fill="lightgreen" stroke="#333333" cx="95.5" cy="-126" rx="36" ry="18"/>
<text text-anchor="start" x="87.5" y="-125.1" font-family="Arial" font-weight="bold" font-size="8.00">new</text>
</g>
<!-- transition_0 -->
<g id="node2" class="node">
<title>transition_0</title>
<polygon fill="none" stroke="#333333" points="131.5,-72 59.5,-72 59.5,-36 131.5,-36 131.5,-72"/>
<text text-anchor="start" x="79.5" y="-53.1" font-family="Arial" font-weight="bold" font-size="8.00">process</text>
</g>
<!-- place_new&#45;&gt;transition_0 -->
<!-- new -->
<g id="edge1" class="edge">
<title>place_new&#45;&gt;transition_0</title>
<path fill="none" stroke="#333333" d="M89.62,-108.05C88.64,-98.82 88.49,-87.28 89.16,-77.32"/>
<polygon fill="#333333" stroke="#333333" points="90.91,-77.41 89.59,-72.28 87.42,-77.11 90.91,-77.41"/>
</g>
<!-- transition_0&#45;&gt;place_new -->
<g id="edge2" class="edge">
<title>transition_0&#45;&gt;place_new</title>
<path fill="none" stroke="#333333" d="M101.41,-72.28C102.37,-81.56 102.51,-93.12 101.82,-103.04"/>
<polygon fill="#333333" stroke="#333333" points="100.07,-102.92 101.38,-108.05 103.56,-103.23 100.07,-102.92"/>
</g>
</g>
</svg>
